<svg xmlns="http://www.w3.org/2000/svg" viewBox="740 2615.823 90.508 90.508">
  <defs>
    <style>
      .cls-1 {
        fill: #02b3e4;
      }
    </style>
  </defs>
  <g id="udacity" transform="translate(740 2620.331) rotate(-3)">
    <path id="mark_28_" class="cls-1" d="M28.634,0,0,16.578V54.47A31.516,31.516,0,0,0,31.433,86.119a33.066,33.066,0,0,0,15.932-4.091L70.617,68.68a28.887,28.887,0,0,0,15.5-25.62V3.445L80.521.215,55.977,13.348V54.685a41.81,41.81,0,0,1-.431,5.167,30.49,30.49,0,0,1-1.507,4.737l-.646,1.292a30.713,30.713,0,0,1-9.042-3.875,21.567,21.567,0,0,1-6.244-6.244,34.834,34.834,0,0,1-2.153-3.875,14.29,14.29,0,0,1-1.292-4.306,31.8,31.8,0,0,1-.215-4.521V3.445ZM42.629,77.937a39.637,39.637,0,0,1-5.382,1.938,19.277,19.277,0,0,1-4.952.431,21.234,21.234,0,0,1-5.167-.646,30.489,30.489,0,0,1-4.737-1.507,27.581,27.581,0,0,1-4.306-2.368,20.723,20.723,0,0,1-7.32-6.889A27.581,27.581,0,0,1,8.4,64.589a33.278,33.278,0,0,1-1.507-4.952,20.964,20.964,0,0,1-.431-5.167V19.807L27.989,6.674V43.059c0,13.779,10.119,25.4,23.037,28.2a5.8,5.8,0,0,1-1.507,1.722,20.6,20.6,0,0,1-6.889,4.952ZM79.229,47.8A25.167,25.167,0,0,1,77.937,52.1a34.835,34.835,0,0,1-2.153,3.875,22.418,22.418,0,0,1-6.889,6.459,29.447,29.447,0,0,1-8.612,3.014,29.981,29.981,0,0,0,2.153-10.765V16.578l17.224-9.9V43.059A16.89,16.89,0,0,1,79.229,47.8Z" transform="translate(0 0)"/>
  </g>
</svg>
